<svg width="20" height="25" viewBox="0 0 20 25" fill="none" xmlns="http://www.w3.org/2000/svg">
<path d="M6.63085 24.3835C3.00185 24.3626 0 16.9545 0 13.1818C0 7.01904 4.62311 5.66985 6.40483 5.66985C7.20777 5.66985 8.06515 5.98516 8.82137 6.26419C9.35019 6.45883 9.89711 6.65976 10.2013 6.65976C10.3834 6.65976 10.8124 6.48884 11.1912 6.33887C11.999 6.01726 13.0043 5.61755 14.1749 5.61755C14.177 5.61755 14.1798 5.61755 14.1819 5.61755C15.0559 5.61755 17.7062 5.80938 19.2996 8.20221L19.6728 8.76308L19.1357 9.16841C18.3683 9.74743 16.9682 10.8036 16.9682 12.8958C16.9682 15.3737 18.5538 16.3267 19.3156 16.785C19.6519 16.9873 20 17.1959 20 17.6522C20 17.9501 17.6225 24.3465 14.17 24.3465C13.3252 24.3465 12.728 24.0926 12.2013 23.8687C11.6683 23.6419 11.2086 23.4466 10.4489 23.4466C10.0638 23.4466 9.57684 23.6287 9.0613 23.8219C8.3568 24.0849 7.55938 24.3835 6.65457 24.3835H6.63085Z" fill="white"/>
<path d="M14.5406 0C14.6305 3.24206 12.312 5.49126 9.99608 5.35019C9.61447 2.76292 12.3117 0 14.5406 0Z" fill="white"/>
</svg>
