<svg width="24" height="30" viewBox="0 0 24 30" fill="none" xmlns="http://www.w3.org/2000/svg">
<path d="M12 0C5.7 0 0.574219 5.12578 0.574219 11.4258C0.574219 13.9189 1.36172 16.2879 2.85352 18.2754L11.2957 29.6456C11.3168 29.6731 11.349 29.6837 11.3725 29.7083C11.7943 30.16 12.4031 30.0463 12.7037 29.6456C15.1348 26.4018 19.5908 20.3438 21.3041 18.0586C21.3041 18.0586 21.3047 18.0568 21.3053 18.0557L21.3158 18.0416C22.6963 16.1021 23.4258 13.8146 23.4258 11.4258C23.4258 5.12578 18.3 0 12 0ZM12 17.5898C8.60801 17.5898 5.83594 14.8178 5.83594 11.4258C5.83594 8.03379 8.60801 5.26172 12 5.26172C15.392 5.26172 18.1641 8.03379 18.1641 11.4258C18.1641 14.8178 15.392 17.5898 12 17.5898Z" fill="#209E2E"/>
</svg>
