<svg width="32" height="32" viewBox="0 0 32 32" fill="none" xmlns="http://www.w3.org/2000/svg">
<path d="M18.3822 16.0002L31.5072 2.87516C32.1649 2.2174 32.1649 1.15101 31.5072 0.493318C30.8494 -0.164439 29.783 -0.164439 29.1253 0.493318L16.0002 13.6184L2.87516 0.493318C2.2174 -0.164439 1.15101 -0.164439 0.493318 0.493318C-0.164377 1.15108 -0.164439 2.21746 0.493318 2.87516L13.6184 16.0002L0.493318 29.1252C-0.164439 29.783 -0.164439 30.8494 0.493318 31.5071C1.15108 32.1648 2.21746 32.1648 2.87516 31.5071L16.0002 18.382L29.1252 31.5071C29.7829 32.1648 30.8494 32.1648 31.5071 31.5071C32.1648 30.8493 32.1648 29.7829 31.5071 29.1252L18.3822 16.0002Z" fill="#209E2E"/>
</svg>
